<svg width="24" height="24" xmlns="http://www.w3.org/2000/svg" xmlns:xlink="http://www.w3.org/1999/xlink">
 <!-- Created with SVG-edit - http://svg-edit.googlecode.com/ -->
 <defs>
  <svg viewBox="0 0 421.94 421.939" height="421.939px" width="421.94px" y="0px" x="0px" id="svg_1" xmlns:xlink="http://www.w3.org/1999/xlink">
   <g>
    <g>
     <path d="m219.865997,163.813995c-7.253998,0 -13.964005,2.053009 -20.125,6.173004c-6.173004,4.106995 -11.48999,9.411987 -15.960999,15.947998c-4.487991,6.535995 -7.925995,13.850998 -10.343002,21.94101c-2.429001,8.115997 -3.626999,16.01799 -3.626999,23.764984c0,7.973999 1.632996,14.507004 4.900009,19.587006c3.263,5.067993 8.871994,7.613983 16.860992,7.613983c3.375,0 7.024994,-1.020996 10.889999,-3.085983c3.867004,-2.054001 7.598999,-4.769012 11.238007,-8.167007c3.62999,-3.375 7.121994,-7.253998 10.520996,-11.602005c3.375,-4.347 6.401001,-8.946991 9.067001,-13.773987l9.072998,-50.056015c-3.164001,-2.668991 -6.425003,-4.722992 -9.800003,-6.172989c-3.39299,-1.451996 -7.625992,-2.169998 -12.694,-2.169998z"/>
     <path d="m210.975998,0c-116.514999,0 -210.975998,94.453003 -210.975998,210.964005c0,116.513992 94.452003,210.975998 210.975006,210.975998c116.526001,0 210.962982,-94.455017 210.962982,-210.975998c0.001007,-116.511002 -94.423981,-210.964005 -210.96199,-210.964005zm134.931015,264.28299c-9.559998,9.920013 -20.674988,17.779999 -33.363007,23.575012c-12.687988,5.800995 -26.307007,8.707001 -40.813995,8.707001c-6.05899,0 -11.666992,-0.654999 -16.867004,-1.987c-5.205994,-1.340027 -9.565002,-3.567017 -13.054993,-6.720001c-3.507004,-3.146027 -6.112,-7.253998 -7.811996,-12.334015c-1.693008,-5.079987 -2.173004,-11.360992 -1.435013,-18.848999h-1.452988c-3.615005,5.062012 -7.561005,10.027008 -11.794006,14.867004c-4.218002,4.839996 -8.871994,9.121002 -13.964005,12.875c-5.065002,3.759003 -10.636993,6.718994 -16.668991,8.886993c-6.062012,2.174011 -12.703003,3.261017 -19.960007,3.261017c-5.797989,0 -11.360992,-1.27301 -16.692993,-3.808014c-5.309006,-2.540009 -9.904999,-6.105988 -13.775009,-10.694c-3.866989,-4.588013 -6.953003,-10.160004 -9.235001,-16.692993c-2.316994,-6.527008 -3.460999,-13.774002 -3.460999,-21.761002c0,-14.994003 2.429001,-29.559006 7.255997,-43.703003c4.840012,-14.147003 11.431,-26.662003 19.768005,-37.539001c8.343994,-10.884003 18.029007,-19.632996 29.030014,-26.298004c11,-6.641998 22.664993,-9.967995 34.992996,-9.967995c8.470001,0 15.604004,1.273003 21.397995,3.806999c5.795013,2.546005 11.126999,5.860001 15.96701,9.979004l11.234009,-11.615997h25.394989l-17.401001,98.301987c-1.93399,11.361008 -1.993988,19.588013 -0.192017,24.668015c1.825012,5.066986 5.860016,7.613983 12.153015,7.613983c6.281006,0 12.466003,-1.453003 18.506989,-4.358994c6.029022,-2.899994 11.470001,-7.362 16.321014,-13.421997c4.815002,-6.033997 8.766998,-13.660004 11.781006,-22.841995c3.026001,-9.199005 4.526978,-20.083008 4.526978,-32.656998c0,-18.134003 -3.026001,-33.617004 -9.066986,-46.432007c-6.053009,-12.814003 -14.326996,-23.394997 -24.834991,-31.729004c-10.522034,-8.343987 -22.923035,-14.446983 -37.190033,-18.313988c-14.261002,-3.869995 -29.621002,-5.811996 -46.065002,-5.811996c-18.85199,0 -36.388992,3.387001 -52.592987,10.144997c-16.201004,6.789001 -30.28801,16.093002 -42.262009,27.934998c-11.959,11.856003 -21.328995,25.944 -28.112,42.262009c-6.751999,16.320999 -10.144997,34.034988 -10.144997,53.134003c0,18.866989 2.846001,35.787994 8.514999,50.776001c5.695999,15.011993 13.976997,27.753998 24.860001,38.273987c10.870995,10.520996 24.355003,18.61499 40.448006,24.295013c16.064987,5.681976 34.5,8.53299 55.303986,8.53299c7.014008,0 14.988007,-0.846985 23.947006,-2.533997c8.936005,-1.692993 17.041992,-4.233002 24.29599,-7.626007l11.240021,34.828003c-9.907013,4.839996 -20.008011,8.214996 -30.28801,10.141998c-10.279999,1.93399 -22.061996,2.925018 -35.371002,2.925018c-23.451996,0 -45.155991,-3.39801 -65.091995,-10.154022c-19.957001,-6.778992 -37.254005,-16.812988 -51.885002,-30.106995c-14.626999,-13.307007 -26.057999,-29.80899 -34.271999,-49.503998c-8.227001,-19.708008 -12.322002,-42.501999 -12.322002,-68.371002c0,-26.361008 4.708,-50.188004 14.135002,-71.469009c9.428001,-21.268997 22.149002,-39.403 38.092003,-54.405998c15.963997,-14.997002 34.457993,-26.526001 55.481003,-34.651001c21.056,-8.079998 43.293991,-12.141998 66.745987,-12.141998c22.242004,0 42.922012,3.203999 62.018021,9.611c19.106995,6.412998 35.667999,15.597 49.694977,27.558998c14.027008,11.971001 25.028015,26.612999 33.003021,43.896004c7.985992,17.300003 11.984985,36.944 11.984985,58.945999c0,15.483002 -2.72699,29.990997 -8.166992,43.531998c-5.451019,13.526016 -12.933014,25.258011 -22.485992,35.166z"/>
    </g>
   </g>
   <g/>
   <g/>
   <g/>
   <g/>
   <g/>
   <g/>
   <g/>
   <g/>
   <g/>
   <g/>
   <g/>
   <g/>
   <g/>
   <g/>
   <g/>
  </svg>
 </defs>
 <g>
  <title>Layer 1</title>
  <use fill="#bfbfbf" x="0" y="0" transform="matrix(0.05681285279239834,0,0,0.05681275786344697,0.0039023516837033423,0.0039023418972133905) " id="svg_2" xlink:href="#svg_1"/>
 </g>
</svg>
