<svg width="24" height="24" xmlns="http://www.w3.org/2000/svg" xmlns:xlink="http://www.w3.org/1999/xlink">
 <!-- Created with SVG-edit - http://svg-edit.googlecode.com/ -->
 <defs>
  <svg viewBox="0 0 281.465 281.465" y="0px" x="0px" id="svg_2" xmlns:xlink="http://www.w3.org/1999/xlink">
   <path d="m273.661011,114.318001v-47.282997h-45.558014l8.783005,-67.035004h-47.690002l-8.783005,67.035004h-60.083992l8.784004,-67.035004h-47.688004l-8.785004,67.035004h-64.835999v47.282997h58.649003l-6.904003,52.790993h-51.745v47.289001h45.558999l-8.784,67.065994h47.687l8.787003,-67.065994h60.083l-8.785995,67.065994h47.690994l8.783005,-67.065994h64.835999v-47.289001h-58.647003l6.901001,-52.790993h51.747009l0,0zm-106.335007,52.790993h-60.084007l6.900002,-52.790993h60.082001l-6.897995,52.790993z"/>
   <g/>
   <g/>
   <g/>
   <g/>
   <g/>
   <g/>
   <g/>
   <g/>
   <g/>
   <g/>
   <g/>
   <g/>
   <g/>
   <g/>
   <g/>
  </svg>
 </defs>
 <g>
  <title>Layer 1</title>
  <use fill="#bfbfbf" x="0" y="0" transform="matrix(1.0449268464727837,0,0,0.9937578929301409,-0.4337117184309598,0.07563570141810994) " id="svg_3" xlink:href="#svg_2"/>
 </g>
</svg>
