<svg width="32" height="32" xmlns="http://www.w3.org/2000/svg" xmlns:xlink="http://www.w3.org/1999/xlink">
 <!-- Created with SVG-edit - http://svg-edit.googlecode.com/ -->
 <defs>
  <svg viewBox="0 0 96.943 96.943" height="96.943px" width="96.943px" y="0px" x="0px" id="svg_1" xmlns:xlink="http://www.w3.org/1999/xlink">
   <g>
    <g>
     <path d="m61.167999,83.919998h-49.803999v-70.894999h49.805998c1.104,0 2,-0.896 2,-2v-7.365c0,-1.104 -0.896,-2 -2,-2h-59.169998c-1.104,0 -2,0.896 -2,2v89.622997c0,1.104004 0.896,2 2,2h59.167999c1.105,0 2,-0.895996 2,-2v-7.362999c0,-1.105995 -0.894001,-2 -2,-2z"/>
     <path d="m96.355003,47.057999l-26.922005,-26.919998c-0.75,-0.751001 -2.077995,-0.75 -2.827995,0l-6.387005,6.387999c-0.780998,0.781 -0.780998,2.047001 0,2.828001l12.16,12.161999h-52.640999c-1.104,0 -2,0.896 -2,2v9.912003c0,1.104 0.896,2 2,2h52.643997l-12.159996,12.161995c-0.781002,0.781006 -0.781002,2.047005 0,2.828003l6.387001,6.389c0.375,0.375 0.884995,0.585999 1.414001,0.585999c0.530998,0 1.038994,-0.210999 1.413994,-0.585999l26.922005,-26.919998c0.375,-0.375 0.585999,-0.885002 0.585999,-1.414001c-0.000999,-0.531998 -0.213997,-1.040001 -0.588997,-1.415001z"/>
    </g>
   </g>
   <g/>
   <g/>
   <g/>
   <g/>
   <g/>
   <g/>
   <g/>
   <g/>
   <g/>
   <g/>
   <g/>
   <g/>
   <g/>
   <g/>
   <g/>
  </svg>
 </defs>
 <g>
  <title>Layer 1</title>
  <use fill="#bfbfbf" x="0" y="0" transform="matrix(0.32447505077944794,0,0,0.333806442729606,0.3030684573996734,-0.1733904094636552) " id="svg_2" xlink:href="#svg_1"/>
 </g>
</svg>
