<svg width="32" height="32" xmlns="http://www.w3.org/2000/svg">
 <!-- Created with SVG-edit - http://svg-edit.googlecode.com/ -->
 <g>
  <title>Layer 1</title>
  <g id="svg_4">
   <g id="svg_5">
    <path id="svg_6" fill="#bfbfbf" d="m24.932634,12.624723h-2.408115v-1.929698c0,-3.993373 -1.785486,-6.340437 -5.35137,-6.340437s-5.351371,2.347064 -5.351371,6.340437v1.929698h-2.675684c-0.739024,0 -1.337842,0.892623 -1.337842,1.654027v10.751178c0,0.758099 0.573131,1.568846 1.273358,1.801512l1.600595,0.532043c0.700227,0.232944 1.875388,0.423155 2.611201,0.423155h7.759485c0.735813,0 1.910975,-0.19021 2.6112,-0.423155l1.600595,-0.532043c0.700228,-0.232666 1.273357,-1.043413 1.273357,-1.801512v-10.751178c0,-0.761404 -0.866385,-1.654027 -1.60541,-1.654027zm-10.435172,-2.48104c0,-1.991724 1.066529,-3.032383 2.675687,-3.032383s2.675684,1.040659 2.675684,3.032383v2.48104h-5.351371v-2.48104l0,0z"/>
   </g>
  </g>
  <g id="svg_7"/>
  <g id="svg_8"/>
  <g id="svg_9"/>
  <g id="svg_10"/>
  <g id="svg_11"/>
  <g id="svg_12"/>
  <g id="svg_13"/>
  <g id="svg_14"/>
  <g id="svg_15"/>
  <g id="svg_16"/>
  <g id="svg_17"/>
  <g id="svg_18"/>
  <g id="svg_19"/>
  <g id="svg_20"/>
  <g id="svg_21"/>
 </g>
</svg>
