<svg width="24" height="24" xmlns="http://www.w3.org/2000/svg" xmlns:xlink="http://www.w3.org/1999/xlink">
 <!-- Created with SVG-edit - http://svg-edit.googlecode.com/ -->
 <defs>
  <svg viewBox="0 0 500 500" height="500px" width="500px" y="0px" x="0px" id="svg_1" xmlns:xlink="http://www.w3.org/1999/xlink">
   <g>
    <path d="m366.666992,300c-33.334015,33.333008 -33.334015,66.665985 -66.666992,66.665985s-66.667007,-33.332977 -100,-66.665985c-33.332993,-33.334015 -66.667007,-66.667007 -66.667007,-100c0,-33.332993 33.333008,-33.332993 66.667007,-66.667007s-66.667007,-133.332993 -100,-133.332993s-100,100 -100,100c0,66.667007 68.489998,201.822998 133.332993,266.666992s200.000015,133.333008 266.667007,133.333008c0,0 100,-66.666992 100,-100c0,-33.333008 -100,-133.333008 -133.333008,-100z"/>
   </g>
   <g/>
   <g/>
   <g/>
   <g/>
   <g/>
   <g/>
   <g/>
   <g/>
   <g/>
   <g/>
   <g/>
   <g/>
   <g/>
   <g/>
   <g/>
  </svg>
 </defs>
 <g>
  <title>Layer 1</title>
  <use fill="#bfbfbf" x="0" y="0" transform="matrix(0.0478922757626843,0,0,0.047892275313546694,0.005654658704883655,0.005654658625249327) " id="svg_2" xlink:href="#svg_1"/>
 </g>
</svg>
